<mxfile host="app.diagrams.net" modified="2022-04-21T13:33:21.426Z" agent="5.0 (Macintosh; Intel Mac OS X 10_15_7) AppleWebKit/605.1.15 (KHTML, like Gecko) Version/14.1 Safari/605.1.15" etag="rFRX01r2RChYxohTY8yq" version="17.4.6" type="github">
  <diagram id="6hMp1m4a5yYPtm9k18ik" name="Page-1">
    <mxGraphModel dx="1600" dy="913" grid="1" gridSize="10" guides="1" tooltips="1" connect="1" arrows="1" fold="1" page="1" pageScale="1" pageWidth="1200" pageHeight="1920" math="0" shadow="0">
      <root>
        <mxCell id="0" />
        <mxCell id="1" parent="0" />
        <mxCell id="AruAmBznGVgT3oy9WrDw-23" style="edgeStyle=orthogonalEdgeStyle;rounded=0;orthogonalLoop=1;jettySize=auto;html=1;" edge="1" parent="1" source="AruAmBznGVgT3oy9WrDw-6" target="AruAmBznGVgT3oy9WrDw-20">
          <mxGeometry relative="1" as="geometry">
            <Array as="points">
              <mxPoint x="600" y="445" />
            </Array>
          </mxGeometry>
        </mxCell>
        <mxCell id="AruAmBznGVgT3oy9WrDw-6" value="" style="rounded=0;whiteSpace=wrap;html=1;fillColor=#dae8fc;strokeColor=#6c8ebf;" vertex="1" parent="1">
          <mxGeometry x="90" y="340" width="460" height="270" as="geometry" />
        </mxCell>
        <mxCell id="AruAmBznGVgT3oy9WrDw-1" value="" style="rounded=0;whiteSpace=wrap;html=1;fillColor=#f5f5f5;fontColor=#333333;strokeColor=#666666;" vertex="1" parent="1">
          <mxGeometry x="410" y="20" width="380" height="210" as="geometry" />
        </mxCell>
        <mxCell id="AruAmBznGVgT3oy9WrDw-2" value="wallet" style="text;html=1;strokeColor=none;fillColor=none;align=center;verticalAlign=middle;whiteSpace=wrap;rounded=0;" vertex="1" parent="1">
          <mxGeometry x="570" y="20" width="60" height="30" as="geometry" />
        </mxCell>
        <mxCell id="AruAmBznGVgT3oy9WrDw-12" style="edgeStyle=orthogonalEdgeStyle;rounded=0;orthogonalLoop=1;jettySize=auto;html=1;entryX=0.5;entryY=0;entryDx=0;entryDy=0;" edge="1" parent="1" source="AruAmBznGVgT3oy9WrDw-3" target="AruAmBznGVgT3oy9WrDw-8">
          <mxGeometry relative="1" as="geometry">
            <Array as="points">
              <mxPoint x="170" y="155" />
            </Array>
          </mxGeometry>
        </mxCell>
        <mxCell id="AruAmBznGVgT3oy9WrDw-3" value="" style="ellipse;whiteSpace=wrap;html=1;aspect=fixed;" vertex="1" parent="1">
          <mxGeometry x="470" y="115" width="80" height="80" as="geometry" />
        </mxCell>
        <mxCell id="AruAmBznGVgT3oy9WrDw-4" value="ETH- NFT" style="text;html=1;strokeColor=none;fillColor=none;align=center;verticalAlign=middle;whiteSpace=wrap;rounded=0;" vertex="1" parent="1">
          <mxGeometry x="480" y="140" width="60" height="30" as="geometry" />
        </mxCell>
        <mxCell id="AruAmBznGVgT3oy9WrDw-7" value="ETH - PoS" style="text;html=1;strokeColor=none;fillColor=none;align=center;verticalAlign=middle;whiteSpace=wrap;rounded=0;" vertex="1" parent="1">
          <mxGeometry x="110" y="580" width="80" height="30" as="geometry" />
        </mxCell>
        <mxCell id="AruAmBznGVgT3oy9WrDw-8" value="Predicate Proxy" style="rounded=0;whiteSpace=wrap;html=1;" vertex="1" parent="1">
          <mxGeometry x="110" y="370" width="120" height="60" as="geometry" />
        </mxCell>
        <mxCell id="AruAmBznGVgT3oy9WrDw-9" value="" style="rounded=0;whiteSpace=wrap;html=1;" vertex="1" parent="1">
          <mxGeometry x="250" y="370" width="240" height="120" as="geometry" />
        </mxCell>
        <mxCell id="AruAmBznGVgT3oy9WrDw-10" value="Proxy Root Manager Address" style="whiteSpace=wrap;html=1;aspect=fixed;" vertex="1" parent="1">
          <mxGeometry x="270" y="390" width="80" height="80" as="geometry" />
        </mxCell>
        <mxCell id="AruAmBznGVgT3oy9WrDw-11" value="Root Manager" style="whiteSpace=wrap;html=1;aspect=fixed;" vertex="1" parent="1">
          <mxGeometry x="380" y="390" width="80" height="80" as="geometry" />
        </mxCell>
        <mxCell id="AruAmBznGVgT3oy9WrDw-13" value="Approve" style="text;html=1;strokeColor=none;fillColor=none;align=center;verticalAlign=middle;whiteSpace=wrap;rounded=0;" vertex="1" parent="1">
          <mxGeometry x="110" y="300" width="60" height="30" as="geometry" />
        </mxCell>
        <mxCell id="AruAmBznGVgT3oy9WrDw-14" style="edgeStyle=orthogonalEdgeStyle;rounded=0;orthogonalLoop=1;jettySize=auto;html=1;entryX=0.5;entryY=0;entryDx=0;entryDy=0;" edge="1" parent="1" source="AruAmBznGVgT3oy9WrDw-3" target="AruAmBznGVgT3oy9WrDw-10">
          <mxGeometry relative="1" as="geometry">
            <Array as="points">
              <mxPoint x="170" y="155" />
              <mxPoint x="170" y="290" />
              <mxPoint x="310" y="290" />
            </Array>
          </mxGeometry>
        </mxCell>
        <mxCell id="AruAmBznGVgT3oy9WrDw-17" value="DepositFor" style="text;html=1;strokeColor=none;fillColor=none;align=center;verticalAlign=middle;whiteSpace=wrap;rounded=0;" vertex="1" parent="1">
          <mxGeometry x="240" y="300" width="60" height="30" as="geometry" />
        </mxCell>
        <mxCell id="AruAmBznGVgT3oy9WrDw-18" value="" style="endArrow=classic;html=1;rounded=0;entryX=0.5;entryY=0;entryDx=0;entryDy=0;" edge="1" parent="1" target="AruAmBznGVgT3oy9WrDw-11">
          <mxGeometry width="50" height="50" relative="1" as="geometry">
            <mxPoint x="310" y="320" as="sourcePoint" />
            <mxPoint x="430" y="270" as="targetPoint" />
            <Array as="points">
              <mxPoint x="420" y="320" />
            </Array>
          </mxGeometry>
        </mxCell>
        <mxCell id="AruAmBznGVgT3oy9WrDw-19" value="Using ABI" style="text;html=1;strokeColor=none;fillColor=none;align=center;verticalAlign=middle;whiteSpace=wrap;rounded=0;" vertex="1" parent="1">
          <mxGeometry x="340" y="290" width="60" height="30" as="geometry" />
        </mxCell>
        <mxCell id="AruAmBznGVgT3oy9WrDw-37" style="edgeStyle=orthogonalEdgeStyle;rounded=0;orthogonalLoop=1;jettySize=auto;html=1;entryX=-0.01;entryY=0.394;entryDx=0;entryDy=0;entryPerimeter=0;" edge="1" parent="1" source="AruAmBznGVgT3oy9WrDw-20" target="AruAmBznGVgT3oy9WrDw-25">
          <mxGeometry relative="1" as="geometry">
            <Array as="points">
              <mxPoint x="620" y="446" />
            </Array>
          </mxGeometry>
        </mxCell>
        <mxCell id="AruAmBznGVgT3oy9WrDw-20" value="State Sync Mechanism" style="whiteSpace=wrap;html=1;aspect=fixed;" vertex="1" parent="1">
          <mxGeometry x="570" y="610" width="80" height="80" as="geometry" />
        </mxCell>
        <mxCell id="AruAmBznGVgT3oy9WrDw-25" value="" style="rounded=0;whiteSpace=wrap;html=1;fillColor=#e1d5e7;strokeColor=#9673a6;" vertex="1" parent="1">
          <mxGeometry x="660" y="340" width="460" height="270" as="geometry" />
        </mxCell>
        <mxCell id="AruAmBznGVgT3oy9WrDw-26" value="Matic - PoS" style="text;html=1;strokeColor=none;fillColor=none;align=center;verticalAlign=middle;whiteSpace=wrap;rounded=0;" vertex="1" parent="1">
          <mxGeometry x="700" y="580" width="70" height="30" as="geometry" />
        </mxCell>
        <mxCell id="AruAmBznGVgT3oy9WrDw-28" value="MATIC - NFT" style="ellipse;whiteSpace=wrap;html=1;aspect=fixed;" vertex="1" parent="1">
          <mxGeometry x="670" y="115" width="80" height="80" as="geometry" />
        </mxCell>
        <mxCell id="AruAmBznGVgT3oy9WrDw-35" style="edgeStyle=orthogonalEdgeStyle;rounded=0;orthogonalLoop=1;jettySize=auto;html=1;entryX=1;entryY=0.5;entryDx=0;entryDy=0;" edge="1" parent="1" source="AruAmBznGVgT3oy9WrDw-30" target="AruAmBznGVgT3oy9WrDw-28">
          <mxGeometry relative="1" as="geometry">
            <Array as="points">
              <mxPoint x="910" y="155" />
            </Array>
          </mxGeometry>
        </mxCell>
        <mxCell id="AruAmBznGVgT3oy9WrDw-30" value="" style="rounded=0;whiteSpace=wrap;html=1;" vertex="1" parent="1">
          <mxGeometry x="810" y="360" width="240" height="130" as="geometry" />
        </mxCell>
        <mxCell id="AruAmBznGVgT3oy9WrDw-31" value="ETH- NFT" style="ellipse;whiteSpace=wrap;html=1;aspect=fixed;" vertex="1" parent="1">
          <mxGeometry x="330" y="520" width="80" height="80" as="geometry" />
        </mxCell>
        <mxCell id="AruAmBznGVgT3oy9WrDw-32" value="" style="endArrow=classic;html=1;rounded=0;exitX=0.5;exitY=1;exitDx=0;exitDy=0;entryX=0.5;entryY=0;entryDx=0;entryDy=0;" edge="1" parent="1" source="AruAmBznGVgT3oy9WrDw-9" target="AruAmBznGVgT3oy9WrDw-31">
          <mxGeometry width="50" height="50" relative="1" as="geometry">
            <mxPoint x="270" y="550" as="sourcePoint" />
            <mxPoint x="320" y="500" as="targetPoint" />
          </mxGeometry>
        </mxCell>
        <mxCell id="AruAmBznGVgT3oy9WrDw-33" value="Locked" style="text;html=1;strokeColor=none;fillColor=none;align=center;verticalAlign=middle;whiteSpace=wrap;rounded=0;" vertex="1" parent="1">
          <mxGeometry x="380" y="490" width="60" height="30" as="geometry" />
        </mxCell>
        <mxCell id="AruAmBznGVgT3oy9WrDw-34" value="Child Manager" style="rounded=0;whiteSpace=wrap;html=1;" vertex="1" parent="1">
          <mxGeometry x="840" y="390" width="120" height="60" as="geometry" />
        </mxCell>
        <mxCell id="AruAmBznGVgT3oy9WrDw-36" value="Mint only &amp;nbsp;by Child Manager" style="text;html=1;strokeColor=none;fillColor=none;align=center;verticalAlign=middle;whiteSpace=wrap;rounded=0;" vertex="1" parent="1">
          <mxGeometry x="920" y="240" width="100" height="30" as="geometry" />
        </mxCell>
      </root>
    </mxGraphModel>
  </diagram>
</mxfile>
